<svg width="24px" height="24px" viewBox="0 0 24 24" fill="none" xmlns="http://www.w3.org/2000/svg">
<path fill-rule="evenodd" clip-rule="evenodd" d="M12.9318 6.20825C11.3815 6.20825 10.0405 7.11058 9.40807 8.42206C9.23802 8.77467 8.82537 8.93718 8.46055 8.79522C7.96981 8.60427 7.43535 8.49913 6.87455 8.49913C4.45808 8.49913 2.49915 10.4581 2.49915 12.8745C2.49915 15.291 4.45808 17.2499 6.87455 17.2499H18.5232C20.1677 17.2499 21.5008 15.9168 21.5008 14.2724C21.5008 12.6279 20.1677 11.2948 18.5232 11.2948C18.2556 11.2948 17.9974 11.3299 17.7523 11.3954C17.5121 11.4595 17.2558 11.4005 17.0678 11.2377C16.8799 11.0749 16.7848 10.8296 16.814 10.5827C16.832 10.4305 16.8413 10.2753 16.8413 10.1177C16.8413 7.95858 15.091 6.20825 12.9318 6.20825ZM8.37996 7.19396C9.34171 5.69967 11.0204 4.70825 12.9318 4.70825C15.8124 4.70825 18.167 6.9597 18.3321 9.79883C18.3955 9.79616 18.4592 9.79481 18.5232 9.79481C20.9961 9.79481 23.0008 11.7995 23.0008 14.2724C23.0008 16.7453 20.9961 18.7499 18.5232 18.7499H6.87455C3.62965 18.7499 0.999146 16.1194 0.999146 12.8745C0.999146 9.62964 3.62965 6.99913 6.87455 6.99913C7.39421 6.99913 7.89893 7.06678 8.37996 7.19396Z" fill="black"/>
</svg>
