<svg width="48px" height="48px" viewBox="0 0 48 48" xmlns="http://www.w3.org/2000/svg"><title>70 Basic icons by Xicons.co</title><rect y="6" width="48" height="36" rx="2" ry="2" fill="#38b1e7"/><path d="M47.84,40.56A2.11,2.11,0,0,1,46,41.9L2,42H2A2,2,0,0,1,.15,40.78a2,2,0,0,1,.44-2.16L17.88,21.73a9.23,9.23,0,0,1,12.56.07L47.4,38.41A2,2,0,0,1,47.84,40.56Z" fill="#299acc"/><path d="M47.84,7.44A2.11,2.11,0,0,0,46,6.1L2,6H2A2,2,0,0,0,.15,7.22,2,2,0,0,0,.59,9.38L17.88,26.27a9.23,9.23,0,0,0,12.56-.07L47.4,9.59A2,2,0,0,0,47.84,7.44Z" fill="#6ac1e7"/></svg>
