<svg width="48px" height="48px" viewBox="0 0 48 48" xmlns="http://www.w3.org/2000/svg"><title>ONE-xicons</title><path d="M22.9,48a0.8,0.8,0,0,1-.22,0,0.76,0.76,0,0,1-.56-0.73V27.67H8a1.5,1.5,0,0,1-1.43-2L14.51,0.54A0.77,0.77,0,0,1,15.25,0H32.78a0.76,0.76,0,0,1,.68,1.1L26.09,15.83H41a0.78,0.78,0,0,1,.68.39,0.75,0.75,0,0,1,0,.76L23.56,47.62A0.77,0.77,0,0,1,22.9,48ZM15.41,1L7.54,26a0.5,0.5,0,0,0,.48.65H22.34a0.77,0.77,0,0,1,.77.77v19L40.57,16.83H25.7a0.76,0.76,0,0,1-.68-1.1L32.39,1h-17ZM40.78,16.48h0Zm-14.86-.3h0ZM15.46,0.84h0Zm17.1-.19h0Z"/><rect width="48" height="48" fill="none"/></svg>