<svg width="48px" height="48px" viewBox="0 0 48 48" xmlns="http://www.w3.org/2000/svg"><title>ONE-xicons</title><path d="M24,46.42a0.5,0.5,0,0,1-.36-0.15C22.83,45.44,3.74,25.84,2.08,23.09c-3.82-6.37-2.22-15,3.57-19.2a11.66,11.66,0,0,1,9.28-2.08,12.53,12.53,0,0,1,8.25,6A13.29,13.29,0,0,1,24,9.52a13.29,13.29,0,0,1,.82-1.7,12.53,12.53,0,0,1,8.25-6,11.68,11.68,0,0,1,9.28,2.08c5.78,4.21,7.38,12.83,3.57,19.2h0c-1.65,2.76-20.75,22.35-21.56,23.19A0.5,0.5,0,0,1,24,46.42ZM12.62,2.58A10.78,10.78,0,0,0,6.24,4.7C0.86,8.62-.62,16.63,2.94,22.57,4.41,25,21.31,42.44,24,45.21,26.69,42.44,43.59,25,45.06,22.57c3.56-5.94,2.08-14-3.3-17.87a10.66,10.66,0,0,0-8.49-1.91,11.54,11.54,0,0,0-7.59,5.55,17.85,17.85,0,0,0-1.21,2.73,0.52,0.52,0,0,1-.94,0,17.85,17.85,0,0,0-1.21-2.73,11.54,11.54,0,0,0-7.59-5.55A10.57,10.57,0,0,0,12.62,2.58ZM45.49,22.83h0Z"/><rect width="48" height="48" fill="none"/></svg>