<svg width="64.342px" height="64.342px" viewBox="-9.17 0 64.342 64.342" xmlns="http://www.w3.org/2000/svg">
  <g id="Group_80" data-name="Group 80" transform="translate(-607 -734.658)">
    <path id="Path_107" data-name="Path 107" d="M622,766h15l15-30H637Z" fill="#99ecff" stroke="#333" stroke-linecap="round" stroke-linejoin="round" stroke-width="2"/>
    <line id="Line_126" data-name="Line 126" x1="15" y2="30" transform="translate(630 736)" fill="#fff" stroke="#333" stroke-linecap="round" stroke-linejoin="round" stroke-width="2"/>
    <path id="Path_108" data-name="Path 108" d="M638,766H623l-15-30h15Z" fill="#99ecff" stroke="#333" stroke-linecap="round" stroke-linejoin="round" stroke-width="2"/>
    <line id="Line_127" data-name="Line 127" x1="15" y1="30" transform="translate(615 736)" fill="#fff" stroke="#333" stroke-linecap="round" stroke-linejoin="round" stroke-width="2"/>
    <circle id="Ellipse_25" data-name="Ellipse 25" cx="21" cy="21" r="21" transform="translate(609 756)" fill="#fff1b6" stroke="#333" stroke-miterlimit="10" stroke-width="2"/>
    <path id="Path_109" data-name="Path 109" d="M646,777a16,16,0,1,1-16-16A16,16,0,0,1,646,777Z" fill="#fff1b6" stroke="#333" stroke-miterlimit="10" stroke-width="2"/>
    <path id="Path_110" data-name="Path 110" d="M630,769.659l2.253,4.566,5.039.732-3.646,3.554.861,5.018L630,781.161l-4.507,2.369.861-5.018-3.646-3.554,5.039-.732Z" fill="#ffc2c2" stroke="#333" stroke-linecap="round" stroke-linejoin="round" stroke-width="2"/>
  </g>
</svg>
