<svg width="48px" height="48px" viewBox="0 0 48 48" xmlns="http://www.w3.org/2000/svg"><title>ONE-xicons</title><path d="M24,32a8,8,0,1,1,8-8A8,8,0,0,1,24,32Zm0-15a7,7,0,1,0,7,7A7,7,0,0,0,24,17Z"/><path d="M28.94,48H19.06a1.38,1.38,0,0,1-1.37-1.38v-4.1a19.2,19.2,0,0,1-5.06-2.68L9.3,42.19a1.37,1.37,0,0,1-1.91-.34L1.73,33.67a1.39,1.39,0,0,1,.34-1.92l3.31-2.35a19.84,19.84,0,0,1,0-10.81L2.06,16.25a1.39,1.39,0,0,1-.34-1.92L7.39,6.15A1.36,1.36,0,0,1,9.3,5.81l3.32,2.35a19.21,19.21,0,0,1,5.06-2.68V1.38A1.38,1.38,0,0,1,19.06,0h9.87a1.38,1.38,0,0,1,1.37,1.38v4.1a19.21,19.21,0,0,1,5.06,2.68L38.7,5.81a1.36,1.36,0,0,1,1.91.34l5.66,8.18a1.39,1.39,0,0,1-.34,1.92l-3.31,2.35a19.84,19.84,0,0,1,0,10.81l3.31,2.35a1.39,1.39,0,0,1,.34,1.92l-5.66,8.18a1.36,1.36,0,0,1-1.91.34l-3.32-2.35a19.2,19.2,0,0,1-5.06,2.68v4.1A1.38,1.38,0,0,1,28.94,48ZM12.65,38.6l0.29,0.22a18.17,18.17,0,0,0,5.41,2.86l0.34,0.11v4.82a0.38,0.38,0,0,0,.37.38h9.87a0.38,0.38,0,0,0,.37-0.38V41.8l0.34-.11a18.17,18.17,0,0,0,5.41-2.86l0.29-.22,3.92,2.78a0.36,0.36,0,0,0,.27.06,0.37,0.37,0,0,0,.24-0.16l5.66-8.18a0.39,0.39,0,0,0-.09-0.54l-3.9-2.76,0.1-.35a18.84,18.84,0,0,0,0-10.93l-0.1-.34,3.9-2.76a0.39,0.39,0,0,0,.09-0.54L39.79,6.71a0.37,0.37,0,0,0-.24-0.15,0.35,0.35,0,0,0-.27.06L35.35,9.4l-0.29-.22a18.2,18.2,0,0,0-5.41-2.86L29.31,6.2V1.38A0.38,0.38,0,0,0,28.94,1H19.06a0.38,0.38,0,0,0-.37.38V6.2l-0.34.11a18.2,18.2,0,0,0-5.41,2.86l-0.29.22L8.72,6.62a0.35,0.35,0,0,0-.27-0.06,0.37,0.37,0,0,0-.24.15L2.55,14.9a0.39,0.39,0,0,0,.09.54l3.9,2.76-0.1.34a18.84,18.84,0,0,0,0,10.93l0.1,0.35-3.9,2.76a0.39,0.39,0,0,0-.09.54l5.66,8.18a0.37,0.37,0,0,0,.24.16,0.36,0.36,0,0,0,.27-0.06Z"/><rect width="48" height="48" fill="none"/></svg>