<svg width="48px" height="48px" viewBox="0 0 48 48" xmlns="http://www.w3.org/2000/svg"><title>ONE-xicons</title><path d="M39.13,48a1.26,1.26,0,0,1-.62-0.16L23.78,40.3a0.27,0.27,0,0,0-.27,0l-15,7.07a1.24,1.24,0,0,1-1.32-.11,1.33,1.33,0,0,1-.52-1.32L11,30.45a0.34,0.34,0,0,0-.09-0.25L0.37,19.05a1.34,1.34,0,0,1-.29-1.37,1.29,1.29,0,0,1,1-.86l14.91-2a0.29,0.29,0,0,0,.22-0.17L23.14,0.72A1.27,1.27,0,0,1,24.29,0h0a1.28,1.28,0,0,1,1.15.77l6.48,14.34,15,2.55a1.29,1.29,0,0,1,1,.9,1.34,1.34,0,0,1-.33,1.36L36.66,30.67a0.34,0.34,0,0,0-.09.29L40.4,46.43a1.34,1.34,0,0,1-.55,1.35A1.26,1.26,0,0,1,39.13,48ZM23.62,39.25a1.28,1.28,0,0,1,.63.17L39,47h0a0.26,0.26,0,0,0,.28,0,0.33,0.33,0,0,0,.13-0.33L35.58,31.16A1.36,1.36,0,0,1,36,30L46.9,19.21A0.34,0.34,0,0,0,47,18.86a0.3,0.3,0,0,0-.23-0.21L31.51,16a0.5,0.5,0,0,1-.37-0.29L24.55,1.18A0.28,0.28,0,0,0,24.29,1a0.29,0.29,0,0,0-.26.17L17.15,15.11a1.29,1.29,0,0,1-1,.71l-14.91,2A0.29,0.29,0,0,0,1,18a0.35,0.35,0,0,0,.07.35L11.67,29.51A1.35,1.35,0,0,1,12,30.68L7.63,46.14a0.32,0.32,0,0,0,.14.29,0.25,0.25,0,0,0,.28,0l15-7.07A1.21,1.21,0,0,1,23.62,39.25Z"/><rect width="48" height="48" fill="none"/></svg>