<svg xmlns="http://www.w3.org/2000/svg" width="14" height="16"><path fill="#108EE9" fill-rule="nonzero" d="M7.374 15.385c-3.624 0-6.57-2.952-6.57-6.575s2.947-6.574 6.57-6.574c.243 0 .486.016.727.044V1.217c0-.137.086-.26.207-.313A.345.345 0 0 1 8.68.98l2.328 2.333a.34.34 0 0 1 0 .48L8.682 6.129a.347.347 0 0 1-.374.076.349.349 0 0 1-.207-.314V4.713a3.86 3.86 0 0 0-.727-.066A4.167 4.167 0 0 0 3.212 8.81a4.17 4.17 0 0 0 4.162 4.165A4.17 4.17 0 0 0 11.54 8.81a.34.34 0 0 1 .339-.34h1.728c.188 0 .342.154.342.34 0 3.622-2.95 6.575-6.574 6.575z"/></svg>