<svg width="48px" height="48px" viewBox="0 0 48 48" xmlns="http://www.w3.org/2000/svg"><title>70 Basic icons by Xicons.co</title><rect x="1" y="7" width="46" height="32" rx="2" ry="2" fill="#4dbe86"/><path d="M24,15a7,7,0,1,0,7,7A7,7,0,0,0,24,15Zm0,10a3,3,0,1,1,3-3A3,3,0,0,1,24,25Z" fill="#b7e4ce"/><path d="M42,14H34a1,1,0,0,1,0-2h8A1,1,0,0,1,42,14Z" fill="#b7e4ce"/><path d="M42,35H34a1,1,0,0,1,0-2h8A1,1,0,0,1,42,35Z" fill="#b7e4ce"/><path d="M14,14H6a1,1,0,0,1,0-2h8A1,1,0,0,1,14,14Z" fill="#b7e4ce"/><path d="M14,35H6a1,1,0,0,1,0-2h8A1,1,0,0,1,14,35Z" fill="#b7e4ce"/></svg>