<svg width="48px" height="48px" viewBox="0 0 48 48" xmlns="http://www.w3.org/2000/svg"><title>70 Basic icons by Xicons.co</title><path d="M43,20.13L25.5,3.88a2.19,2.19,0,0,0-3.35.06L5,20.13H5V44a2,2,0,0,0,2,2H41a2,2,0,0,0,2-2V20.13h0Z" fill="#38b1e7"/><rect x="20" y="17" width="8" height="8" rx="2" ry="2" fill="#fff"/><path d="M46,23.95a1.5,1.5,0,0,1-1-.38L24,4.75,3,23.56a1.5,1.5,0,0,1-2.12-.11A1.49,1.49,0,0,1,1,21.34L22.26,2.29a2.61,2.61,0,0,1,3.48,0L47,21.34A1.49,1.49,0,0,1,46,23.95Z" fill="#ec5044"/><path d="M20,34h8a2,2,0,0,1,2,2V46a0,0,0,0,1,0,0H18a0,0,0,0,1,0,0V36A2,2,0,0,1,20,34Z" fill="#ec5044"/></svg>