<svg width="48px" height="48px" viewBox="0 0 48 48" xmlns="http://www.w3.org/2000/svg"><title>70 Basic icons by Xicons.co</title><path d="M4,15H44a0,0,0,0,1,0,0V41a2,2,0,0,1-2,2H6a2,2,0,0,1-2-2V15A0,0,0,0,1,4,15Z" fill="#4dbe86"/><path d="M19,29H12a2,2,0,0,0-2,2V43H21V31A2,2,0,0,0,19,29Z" fill="#ec5044"/><path d="M43.25,5.17l4.36,9.44a4.05,4.05,0,0,1-.08,3.66,5.77,5.77,0,0,1-5,2.91c-3.13,0-5.65-3.36-5.64-6.06L35.22,4h6.21A2,2,0,0,1,43.25,5.17Z" fill="#ec5044"/><path d="M4.75,5.17L0.4,14.62a4.05,4.05,0,0,0,.08,3.66,5.77,5.77,0,0,0,5,2.91c3.13,0,5.65-3.36,5.64-6.06L12.78,4H6.57A2,2,0,0,0,4.75,5.17Z" fill="#ec5044"/><path d="M20.64,4.16A0.49,0.49,0,0,0,20.28,4L11.55,4s-1.19,11.8-1.19,11.82c0,3,2.11,5.35,4.71,5.35s4.69-2.4,4.69-5.31l1-11.33A0.51,0.51,0,0,0,20.64,4.16Z" fill="#e7e9e9"/><path d="M36.9,4L28.46,4a0.49,0.49,0,0,0-.36.16,0.51,0.51,0,0,0-.13.38l0.7,11.3c0,3,2.11,5.35,4.7,5.35s4.72-2.4,4.72-5.35C38.09,15.81,36.9,4,36.9,4Z" fill="#e7e9e9"/><path d="M28.75,4H19.54l0,11.82c0,3,2.1,5.35,4.69,5.35S29,18.78,29,15.83h0Z" fill="#ec5044"/><rect x="25" y="25" width="14" height="14" rx="2" ry="2" fill="#fff"/></svg>