<?xml version="1.0" encoding="UTF-8"?>
<svg width="1024px" height="1024px" viewBox="0 0 1024 1024" version="1.1" xmlns="http://www.w3.org/2000/svg" xmlns:xlink="http://www.w3.org/1999/xlink">
    <!-- Generator: Sketch 63.1 (92452) - https://sketch.com -->
    <title>logo</title>
    <desc>Created with Sketch.</desc>
    <g id="logo" stroke="none" stroke-width="1" fill="none" fill-rule="evenodd">
        <g id="编组-19" transform="translate(12.000000, 79.000000)">
            <path d="M667.436979,-2.20039257e-11 L500.959589,288.349493 L499.614,286.019 L498.27,288.345 L498.272,288.348 L498.273014,288.348875 L498.273632,288.349493 L498.272,288.349 L332.375,575.693 L332.954781,576.696514 L166.47739,865.046006 L-2.17922374e-11,576.696514 L165.897,289.351 L165.318234,288.348875 L165.319,288.348 L331.793,0.00499999999 L331.790681,-5.40564744e-12 L667.436979,-2.20039257e-11 Z" id="形状结合" fill="#40A9FF"></path>
            <polygon id="Fill-6" fill="#40A9FF" points="666.272879 576.696514 832.75027 865.046006 999.233839 576.696514"></polygon>
            <path d="M666.275351,576.698367 L666.852353,575.698 L500.958353,288.349493 L667.429564,1.65463664e-11 L833.906955,288.349493 L833.329353,289.348 L999.230132,576.698367 L666.275351,576.698367 Z" id="形状结合" fill="#2F54EB"></path>
            <polygon id="Fill-9" fill="#2F54EB" points="166.473683 865.04477 499.428464 865.04477 332.951073 576.695278"></polygon>
            <polygon id="Fill-11" fill="#10239E" points="167.196611 863.782426 166.479862 865.042917 382.134907 661.893912 333.278554 577.268059 332.740992 577.057978"></polygon>
            <polygon id="Fill-12" fill="#10239E" points="501.762224 286.946888 500.958971 288.349493 500.989865 288.405102 543.772386 362.514512 664.655868 4.81334251"></polygon>
        </g>
    </g>
</svg>